<svg

   width="20"
   height="20"
   viewBox="0 0 20 20"
   fill="none">

  <path
     d="M10 0C4.486 0 0 4.48601 0 10C0 15.514 4.48595 20 10 20C15.514 20 20 15.514 20 10C20 4.48601 15.514 0 10 0ZM10 18.483C5.32249 18.483 1.51703 14.6775 1.51703 10C1.51703 5.32249 5.32249 1.51703 10 1.51703C14.6776 1.51703 18.483 5.32249 18.483 10C18.483 14.6775 14.6776 18.483 10 18.483Z"
     fill="#FA114F"
     id="path10" />
  <g
     id="g67"
     transform="translate(0.26422,0.00450418)">
    <path
       d="M 10.4898,10.377 V 5.47711 H 8.97278 v 5.70179 l 0.018163,3.371583 1.507362,-0.002 z"
       fill="#FA114F"
       id="path12"
       style="fill:#fa114f;fill-opacity:1" />
    <circle
       cx="9.7370853"
       cy="14.491922"
       r="0.75851399"
       fill="#fa114f"
       id="circle14" />
    <circle
       cx="9.7356901"
       cy="5.4995098"
       r="0.75851399"
       fill="#fa114f"
       id="circle16" />
  </g>
  <g
     id="g50"
     transform="matrix(-0.00208958,-1.0000086,0.99995791,0.00308871,0.34047209,21.870813)"
     style="stroke-width:1.00002">
    <path
       d="M 12.645414,10.095569 V 5.1956795 h -1.51702 v 5.7017895 l 0.01816,3.371583 1.507362,-0.002 z"
       fill="#FA114F"
       id="path12-8"
       style="fill:#fa114f;fill-opacity:1;stroke-width:1.00002" />
    <circle
       cx="11.892699"
       cy="14.210493"
       r="0.75851399"
       fill="#fa114f"
       id="circle14-0"
       style="stroke-width:1.00004" />
    <circle
       cx="11.891304"
       cy="5.2180791"
       r="0.75851399"
       fill="#fa114f"
       id="circle16-2"
       style="stroke-width:1.00004" />
  </g>
</svg>
