<svg width="15" height="19" viewBox="0 0 15 19" fill="none" xmlns="http://www.w3.org/2000/svg">
<path d="M14.1047 4.6875C14.4591 4.33313 14.6541 3.8625 14.6541 3.36187C14.6541 2.86125 14.4591 2.39062 14.1047 2.03625L12.6178 0.549375C12.2634 0.195 11.7928 0 11.2922 0C10.7916 0 10.3209 0.195 9.9675 0.548438L0 10.485V14.6241H4.13719L14.1047 4.6875ZM11.2922 1.875L12.78 3.36094L11.2894 4.84594L9.8025 3.36L11.2922 1.875ZM1.875 12.7491V11.2631L8.475 4.68375L9.96188 6.17062L3.36281 12.7491H1.875ZM0 16.4991H15V18.3741H0V16.4991Z" fill="#FA114F"/>
</svg>
