<svg width="22" height="22" viewBox="0 0 22 22" fill="none"
    xmlns="http://www.w3.org/2000/svg">
    <path d="M11 4.88889C11.2431 4.88889 11.4763 4.98547 11.6482 5.15737C11.8201 5.32928 11.9167 5.56244 11.9167 5.80556V10.0833H16.1944C16.4376 10.0833 16.6707 10.1799 16.8426 10.3518C17.0145 10.5237 17.1111 10.7569 17.1111 11C17.1111 11.2431 17.0145 11.4763 16.8426 11.6482C16.6707 11.8201 16.4376 11.9167 16.1944 11.9167H11.9167V16.1944C11.9167 16.4376 11.8201 16.6707 11.6482 16.8426C11.4763 17.0145 11.2431 17.1111 11 17.1111C10.7569 17.1111 10.5237 17.0145 10.3518 16.8426C10.1799 16.6707 10.0833 16.4376 10.0833 16.1944V11.9167H5.80556C5.56244 11.9167 5.32928 11.8201 5.15737 11.6482C4.98547 11.4763 4.88889 11.2431 4.88889 11C4.88889 10.7569 4.98547 10.5237 5.15737 10.3518C5.32928 10.1799 5.56244 10.0833 5.80556 10.0833H10.0833V5.80556C10.0833 5.56244 10.1799 5.32928 10.3518 5.15737C10.5237 4.98547 10.7569 4.88889 11 4.88889ZM0 3.97222C0 2.91872 0.418501 1.90837 1.16344 1.16344C1.90837 0.418501 2.91872 0 3.97222 0H18.0278C19.0813 0 20.0916 0.418501 20.8366 1.16344C21.5815 1.90837 22 2.91872 22 3.97222V18.0278C22 19.0813 21.5815 20.0916 20.8366 20.8366C20.0916 21.5815 19.0813 22 18.0278 22H3.97222C2.91872 22 1.90837 21.5815 1.16344 20.8366C0.418501 20.0916 0 19.0813 0 18.0278V3.97222ZM3.97222 1.83333C3.40495 1.83333 2.86092 2.05868 2.4598 2.4598C2.05868 2.86092 1.83333 3.40495 1.83333 3.97222V18.0278C1.83333 19.2084 2.79156 20.1667 3.97222 20.1667H18.0278C18.595 20.1667 19.1391 19.9413 19.5402 19.5402C19.9413 19.1391 20.1667 18.595 20.1667 18.0278V3.97222C20.1667 3.40495 19.9413 2.86092 19.5402 2.4598C19.1391 2.05868 18.595 1.83333 18.0278 1.83333H3.97222Z" fill="black"/>
</svg>
