<svg width="15" height="15" viewBox="0 0 15 15" fill="none"
    xmlns="http://www.w3.org/2000/svg">
    <path d="M14.1047 3.71767C14.4591 3.43662 14.6541 3.06336 14.6541 2.66631C14.6541 2.26927 14.4591 1.89601 14.1047 1.61496L12.6178 0.435711C12.2634 0.154655 11.7928 0 11.2922 0C10.7916 0 10.3209 0.154655 9.9675 0.434968L0 8.31569V11.5984H4.13719L14.1047 3.71767ZM11.2922 1.48707L12.78 2.66557L11.2894 3.84333L9.8025 2.66483L11.2922 1.48707ZM1.875 10.1113V8.93282L8.475 3.7147L9.96187 4.89394L3.36281 10.1113H1.875ZM0 13.0855H15V14.5725H0V13.0855Z" fill="black"/>
</svg>
